<svg xmlns="http://www.w3.org/2000/svg" xmlns:xlink="http://www.w3.org/1999/xlink" width="27" height="31" viewBox="0 0 27 31">
  <defs>
    <clipPath id="clip-path">
      <rect id="Rectangle_2" data-name="Rectangle 2" width="27" height="31" fill="#c01336"/>
    </clipPath>
  </defs>
  <g id="IG-barra" clip-path="url(#clip-path)">
    <path id="Path_4" data-name="Path 4" d="M17.607,30.983l-3.3-.465c-3-.421-6.787.641-10.414-.579-1.021-.342-2.386-.8-2.72-1.816L.52,26.139a6.764,6.764,0,0,1-.431-3.519c.977-6.3-.7-5.9.2-10.872l1-5.51A9.433,9.433,0,0,1,3.469,2.1c1.567-1.93,5.7-2.36,7.7-1.957a81.112,81.112,0,0,0,8.293,1.228l2.113.211a10.25,10.25,0,0,1,2.544.693c.986.4,1.312,1.588,1.831,2.369,1.725,2.571.863,7.5.625,10.643l-.546,7.186L25.909,24.3a5.927,5.927,0,0,1-1.382,3.878,8.809,8.809,0,0,1-4.683,2.378,7.361,7.361,0,0,1-2.227.43Zm-3.733-1.86c1.708.105,3.257.658,4.895.3s4.331-1,5.212-2.975c.66-1.474.519-3.089.643-4.659l.819-10.178c.211-2.659.114-5.607-1.576-7.686-.651-.8-1.831-.834-2.782-.948l-2.13-.246c-2.157-.254-4.2-.5-6.33-.93-2.474-.5-5.986-.728-7.958.992C2.122,5.01,2.422,7.9,1.77,10.459c-1.347,5.273-.026,5.054-.414,10.266,1.144,2.246-.872,2.1.343,4.9.291.684.414,1.772,1.083,2.229a9.4,9.4,0,0,0,5.608,1.3l2.483-.07c.951-.026,1.99-.044,3,.026Z" fill="#c01336"/>
    <path id="Path_5" data-name="Path 5" d="M19.816,17.9c-1.136,4.054-3.979,7.458-8.671,6.054-1.717-.509-2.729-1.939-3.7-3.361C5.969,18.417,6,15.074,7.034,12.661A7.407,7.407,0,0,1,10.679,9.3a4.677,4.677,0,0,1,6.039,1.579,6.171,6.171,0,0,1,3.1,7.011Zm-1.391-.017a5.027,5.027,0,0,0-1.91-5.405c-.282.421-1.285-1.255-2.06-2.009A2.3,2.3,0,0,0,12.3,9.985,5.794,5.794,0,0,0,8.9,12.1c-.907.991-1.25,3.054-1.171,4.738a5.87,5.87,0,0,0,1.928,4.247c.44.412.924,1.141,1.541,1.36a5.875,5.875,0,0,0,2.984.289c1.769-.342,3.662-3.071,4.243-4.87Z" fill="#c01336"/>
    <path id="Path_6" data-name="Path 6" d="M22.448,6.633c.317,1.369-1.62,2.79-2.535,2.439a2.181,2.181,0,0,1-1.136-2.738l.8-1.386C20.9,5.151,22.122,5.2,22.448,6.633Z" fill="#c01336"/>
  </g>
</svg>
